<svg xmlns="http://www.w3.org/2000/svg" viewBox="0 0 583.79 385.87"><g id="Livello_2" data-name="Livello 2"><g id="Livello_1-2" data-name="Livello 1"><path d="M572.64,96.33c-3.29-3.09-6.95-7.82-12.28-4.71s-3,8.27-1.65,12.87c9.33,31.9-4.05,51.45-37.31,53.21C474,160.18,433.65,143,399.19,111.29c-20.5-18.86-40-38.83-60.48-57.68C302.05,19.9,261.14-4,208.79.56c-12.31,1.07-25.07-.34-37,6.22,44.45,6.06,89,11,120.75,51.22C251.1,59.7,215,73.74,178.85,87.78A242.3,242.3,0,0,1,67.31,103.05C30,99.52,11.7,83,17.82,42.7c.65-4.36,3.74-9.41-1.65-13.17-20,18.9-21.7,54.3-3.79,74.17,23.09,25.6,53.13,33.39,86,33.44,9.2,0,12.79.84,9.49,12.16-13.18,45.26-6,87.2,25,123.62,23.35,27.46,54.41,43.3,88.22,53.24,67.17,19.74,130.91,15.74,187-31.56,7.16-6.07,13.8-12.73,21.13-19.53,0,2,.36,3.42-.08,4.52a60.56,60.56,0,0,1-4.47,9.41c-33,52.92-82,77.27-143,79-33.73,1-66.38-7.34-99-15-6.2-1.44-12.74-3.87-21.6.47a460,460,0,0,0,51.06,20.24c66.76,22.41,129.4,13,188.91-22.59,55.14-33,73.73-84.19,70.1-145.58-.89-15.12-1.65-15.06,13.49-13.73,2.17.21,4.34.6,6.51.6,27.67.18,53.94-4.5,75.07-24.18C586.74,149.17,589.82,112.46,572.64,96.33ZM426.88,208.18c-6.17-5.56-11.69-11.63-19.4-14.53-2.07-.79-4.5-1.36-5.86.83s-.13,4.16,1.54,5.76c.63.6,1.44,1,2.07,1.59,21,19.85,21,19.79,4.65,43.54-11.58,16.86-27,29.28-44.37,39.71-6.61,4-10.17,2.69-15.14-3-9.2-10.59-9-21.65-5.7-34.1,3.09-11.47,10-22.56,5-35.27-1.09-2.8-1.46-6.64-5.28-6-4.39.68-2.8,4.71-2.48,7.51a26.11,26.11,0,0,1-.37,10.25c-6.64,23.87-6.51,29.67-32.63,19.55-2.67-1-5.91-.55-10.38-.89,5,8.89,12.05,12.71,20.11,13.13,9.62.52,14.27,3.16,11.92,13.75a19.62,19.62,0,0,0,2.62,15.17c8.21,11.84.34,13.36-8.74,15.37-37.94,8.34-74.31,3.92-109.42-12.42-6.38-3-9.13-4.91-1.86-10.95,10.72-8.89,18.1-20.29,17.65-35.41-8.39,13-19.48,22.33-32.18,30.13-4.21,2.58-7.4,3.19-11.74.2-24.16-16.65-42.1-37.59-47.56-67.43-2.57-14,4.39-23.71,18-26.25,5.41-1,5.15,3.06,7,5.62,8.68,12.37,23,16.74,36,10.83a48.49,48.49,0,0,0-16.78-6.7c-5.7-1.17-9-6.14-9.81-11.13-1-6.2,5.73-5.23,9.26-6.44,13.18-4.52,23.87-12.31,32.79-22.82,2.37-2.83,4.47-6.33,2.09-9.39-3.27-4.13-6.46.13-8.68,2-11.19,9.25-24,13.65-38.33,14.33-9.91.47-19,4.62-28.63,7.42,2.24-20.71,8-27,25.88-32.89,28.08-9.23,55.8-19.58,83.85-28.94,21.65-7.22,21.7-6.85,24.4,15,.31,2.46,1.75,4.81,3,8.11,7.17-5.91,6.51-13.18,5-20-1.78-8.05.29-11,8.81-11,19.95,0,36.94,3.66,49.91,21.73,19.77,27.55,44.48,50,76.95,62.59C429.7,180.39,432,193.07,426.88,208.18Z"/></g></g></svg>